<svg width="32" height="33" viewBox="0 0 32 33" fill="none" xmlns="http://www.w3.org/2000/svg">
<g clip-path="url(#clip0_1003_16)">
<g clip-path="url(#clip1_1003_16)">
<rect width="32" height="32" transform="translate(0 0.149902)" fill="white"/>
<g clip-path="url(#clip2_1003_16)">
<mask id="mask0_1003_16" style="mask-type:luminance" maskUnits="userSpaceOnUse" x="1" y="1" width="30" height="33">
<path d="M30.3153 1.29956H1.54077V33.2996H30.3153V1.29956Z" fill="white"/>
</mask>
<g mask="url(#mask0_1003_16)">
<path d="M13.9639 32.7416L11.0277 31.0467V25.3956L15.9281 28.1004L20.8284 25.3956V31.0467L17.8923 32.7416C17.2952 33.0868 16.6177 33.2685 15.9281 33.2683C15.2384 33.2685 14.561 33.0868 13.9639 32.7416ZM26.5046 11.9435C26.5047 11.7949 26.4656 11.6489 26.3913 11.5201C26.3169 11.3914 26.21 11.2845 26.0812 11.2102C25.9525 11.1359 25.8065 11.0968 25.6579 11.0969C25.5092 11.097 25.3632 11.1362 25.2345 11.2106L15.9352 16.4574L6.62128 11.2107C6.49261 11.1363 6.34661 11.0972 6.19799 11.0971C6.04937 11.0971 5.90336 11.1362 5.77463 11.2104C5.64591 11.2847 5.53902 11.3916 5.46469 11.5203C5.39037 11.649 5.35126 11.795 5.35126 11.9436V27.7699L3.53607 26.722C2.93915 26.377 2.44346 25.8811 2.09873 25.2841C1.754 24.687 1.57235 24.0098 1.57202 23.3204V11.2786C1.57234 10.5891 1.754 9.91187 2.09876 9.31478C2.44353 8.71768 2.93928 8.22175 3.53624 7.87678L13.964 1.85729C14.561 1.51223 15.2384 1.33057 15.9281 1.33057C16.6177 1.33057 17.2952 1.51223 17.8923 1.85729L28.32 7.87678C28.917 8.22168 29.4129 8.7176 29.7577 9.31471C30.1024 9.91183 30.284 10.5891 30.2842 11.2786V23.3204C30.2839 24.0098 30.1022 24.687 29.7574 25.2841C29.4127 25.8811 28.9168 26.377 28.3198 26.7217L26.5046 27.7697V11.9435Z" fill="#25A2D8"/>
</g>
</g>
</g>
</g>
<defs>
<clipPath id="clip0_1003_16">
<rect width="32" height="32" fill="white" transform="translate(0 0.149902)"/>
</clipPath>
<clipPath id="clip1_1003_16">
<rect width="32" height="32" fill="white" transform="translate(0 0.149902)"/>
</clipPath>
<clipPath id="clip2_1003_16">
<rect width="28.8" height="32" fill="white" transform="translate(1.54077 -1.17151)"/>
</clipPath>
</defs>
</svg>
